# xmcd CD database file
#
# Track frame offsets:
#	150
#	18606
#	39847
#	61420
#	77445
#	94764
#	111063
#	128308
#	151037
#	169064
#	186491
#	206184
#	223384
#	240192
#	253005
#	269757
#	287456
#	305642
#	325215
#
# Disc length: 4548 seconds
#
# Revision: 1
# Processed by: cddbd v1.5.2PL0 Copyright (c) Steve Scherf et al.
# Submitted via: CDex 1.51
#
DISCID=0811c213
DTITLE=Various Artist - ZMPP-DISC-1-15
DYEAR=1900
DGENRE=Blues
TTITLE0=Taylor Swift - 22
TTITLE1=Olly Murs - Army Of Two
TTITLE2=Robbie Williams - Be A Boy
TTITLE3=Nicole Scherzinger - Boomerang
TTITLE4=Emile Sande - Clown
TTITLE5=Olly Murs - Dear Darlin'
TTITLE6=Ke$ha - Die Young
TTITLE7=Robbie Williams - Different
TTITLE8=Haim - Don't Save Me
TTITLE9=PSY - Gangnam Style
TTITLE10=Daft Punk Ft Pharrel Williams - Get lucky
TTITLE11=Demi Lovato - Heart  Attack
TTITLE12=Nelly - Hey Porsche
TTITLE13=Lumineers The - Ho Hey
TTITLE14=Avicii Vs Nicky Romero - I Could Be The One
TTITLE15=Taylor Swift - I Knew You Were Trouble
TTITLE16=Calvin Harris Ft Ellie Goulding - I Need Your Love
TTITLE17=Stereophonics The - Indian Summer
TTITLE18=Michael Buble - It's A Beautiful Day
EXTD=
EXTT0=
EXTT1=
EXTT2=
EXTT3=
EXTT4=
EXTT5=
EXTT6=
EXTT7=
EXTT8=
EXTT9=
EXTT10=
EXTT11=
EXTT12=
EXTT13=
EXTT14=
EXTT15=
EXTT16=
EXTT17=
EXTT18=
PLAYORDER=
